<svg width="1200" height="630" viewBox="0 0 1200 630" fill="none" xmlns="http://www.w3.org/2000/svg">
  <defs>
    <linearGradient id="bg" x1="0" y1="0" x2="1200" y2="630" gradientUnits="userSpaceOnUse">
      <stop stop-color="#0F172A"/>
      <stop offset="1" stop-color="#111827"/>
    </linearGradient>
    <linearGradient id="card" x1="170" y1="90" x2="1030" y2="540" gradientUnits="userSpaceOnUse">
      <stop stop-color="#1F2937"/>
      <stop offset="1" stop-color="#0B1220"/>
    </linearGradient>
    <linearGradient id="accent" x1="280" y1="180" x2="920" y2="420" gradientUnits="userSpaceOnUse">
      <stop stop-color="#22D3EE"/>
      <stop offset="1" stop-color="#60A5FA"/>
    </linearGradient>
  </defs>
  <rect width="1200" height="630" fill="url(#bg)"/>
  <circle cx="1020" cy="120" r="150" fill="#38BDF8" fill-opacity="0.08"/>
  <circle cx="160" cy="520" r="180" fill="#22C55E" fill-opacity="0.05"/>
  <rect x="170" y="90" width="860" height="450" rx="28" fill="url(#card)" stroke="#334155"/>
  <rect x="235" y="150" width="390" height="230" rx="20" fill="#0B1120" stroke="#334155"/>
  <rect x="665" y="150" width="300" height="62" rx="14" fill="#111827" stroke="#334155"/>
  <rect x="665" y="234" width="260" height="18" rx="9" fill="#1E293B"/>
  <rect x="665" y="266" width="220" height="18" rx="9" fill="#1E293B"/>
  <rect x="665" y="298" width="250" height="18" rx="9" fill="#1E293B"/>
  <rect x="665" y="340" width="280" height="70" rx="14" fill="#0B1120" stroke="#334155"/>
  <rect x="275" y="190" width="300" height="18" rx="9" fill="#1E293B"/>
  <rect x="275" y="223" width="260" height="14" rx="7" fill="#1E293B"/>
  <rect x="275" y="252" width="285" height="14" rx="7" fill="#1E293B"/>
  <path d="M292 324H565" stroke="url(#accent)" stroke-width="10" stroke-linecap="round"/>
  <path d="M292 352H490" stroke="url(#accent)" stroke-width="10" stroke-linecap="round" opacity="0.75"/>
  <rect x="235" y="440" width="730" height="18" rx="9" fill="#1E293B"/>
  <text x="235" y="495" fill="#E5E7EB" font-family="Arial, Apple SD Gothic Neo, Noto Sans KR, sans-serif" font-size="44" font-weight="700">ChatGPT × GitHub 블로그 운영</text>
  <text x="235" y="535" fill="#94A3B8" font-family="Arial, Apple SD Gothic Neo, Noto Sans KR, sans-serif" font-size="24">Jekyll · Chirpy · GitHub Pages · Automation Workflow</text>
</svg>