<svg xmlns="http://www.w3.org/2000/svg" viewBox="0 0 1200 630" role="img" aria-labelledby="title desc">
  <title id="title">첫 사내강사 도전기 썸네일</title>
  <desc id="desc">강의실 앞 발표대와 신청 버튼을 조합한 사내강사 도전기 썸네일</desc>
  <defs>
    <linearGradient id="bg" x1="0" y1="0" x2="1" y2="1">
      <stop offset="0" stop-color="#111827"/>
      <stop offset=".58" stop-color="#7c3aed"/>
      <stop offset="1" stop-color="#14b8a6"/>
    </linearGradient>
    <filter id="shadow" x="-20%" y="-20%" width="140%" height="140%">
      <feDropShadow dx="0" dy="18" stdDeviation="18" flood-color="#020617" flood-opacity=".35"/>
    </filter>
  </defs>
  <rect width="1200" height="630" fill="url(#bg)"/>
  <path d="M0 500c180-70 300-62 468 0s318 64 520-22c86-36 153-44 212-38v190H0z" fill="#0f172a" opacity=".38"/>
  <g filter="url(#shadow)">
    <rect x="96" y="104" width="504" height="356" rx="24" fill="#f8fafc"/>
    <rect x="136" y="146" width="424" height="190" rx="18" fill="#e0f2fe"/>
    <rect x="278" y="386" width="140" height="70" rx="12" fill="#334155"/>
    <rect x="214" y="456" width="268" height="26" rx="13" fill="#1f2937"/>
    <path d="M185 298h326" stroke="#0ea5e9" stroke-width="16" stroke-linecap="round"/>
    <path d="M185 248h250" stroke="#7c3aed" stroke-width="16" stroke-linecap="round"/>
  </g>
  <g font-family="Arial, sans-serif" fill="#fff">
    <text x="675" y="196" font-size="44" font-weight="700">고민할 바엔</text>
    <text x="675" y="286" font-size="82" font-weight="800">신청부터</text>
    <text x="675" y="374" font-size="82" font-weight="800">해보자</text>
  </g>
  <rect x="676" y="430" width="280" height="76" rx="38" fill="#f8fafc"/>
  <text x="724" y="480" font-family="Arial, sans-serif" font-size="30" font-weight="700" fill="#6d28d9">첫 사내강사 도전</text>
</svg>
