<svg xmlns="http://www.w3.org/2000/svg" width="1200" height="630" viewBox="0 0 1200 630"><defs><linearGradient id="bg" x1="0" y1="0" x2="1" y2="1"><stop offset="0%" stop-color="#0b1020"/><stop offset="55%" stop-color="#111827"/><stop offset="100%" stop-color="#1f2937"/></linearGradient><linearGradient id="ac" x1="0" y1="0" x2="1" y2="1"><stop offset="0%" stop-color="#60a5fa"/><stop offset="50%" stop-color="#8b5cf6"/><stop offset="100%" stop-color="#22d3ee"/></linearGradient><filter id="shadow"><feDropShadow dx="0" dy="14" stdDeviation="18" flood-color="#020617" flood-opacity="0.45"/></filter></defs><rect width="1200" height="630" fill="url(#bg)"/><circle cx="1030" cy="120" r="180" fill="#312e81" opacity="0.18"/><circle cx="170" cy="520" r="200" fill="#0891b2" opacity="0.12"/><path d="M0 505 C170 435,275 565,420 505 S720 420,905 500 S1110 590,1200 535 L1200 630 L0 630 Z" fill="#0b1222" opacity="0.72"/><g filter="url(#shadow)"><rect x="700" y="130" rx="28" ry="28" width="380" height="280" fill="#0f172a" stroke="#334155"/><rect x="730" y="165" rx="14" ry="14" width="140" height="24" fill="#60a5fa"/><rect x="730" y="208" rx="10" ry="10" width="320" height="14" fill="#475569"/><rect x="730" y="236" rx="10" ry="10" width="220" height="14" fill="#334155"/><rect x="730" y="278" rx="20" ry="20" width="145" height="96" fill="#111827" stroke="#60a5fa" stroke-opacity="0.55"/><rect x="892" y="278" rx="20" ry="20" width="158" height="96" fill="#111827" stroke="#8b5cf6" stroke-opacity="0.55"/><circle cx="805" cy="326" r="24" fill="#1d4ed8"/><path d="M790 326 l10 10 l20 -24" fill="none" stroke="#e0f2fe" stroke-width="5" stroke-linecap="round" stroke-linejoin="round"/><rect x="922" y="304" rx="12" ry="12" width="96" height="16" fill="#8b5cf6"/><rect x="922" y="330" rx="10" ry="10" width="72" height="12" fill="#64748b"/><rect x="820" y="92" rx="16" ry="16" width="142" height="38" fill="#0f172a" stroke="#38bdf8" stroke-opacity="0.5"/><text x="891" y="117" text-anchor="middle" font-size="19" font-weight="700" fill="#e2e8f0" font-family="Arial, Helvetica, sans-serif">Prompt → UI</text></g><g filter="url(#shadow)" transform="translate(525,330) rotate(-9)"><rect x="0" y="0" rx="22" ry="22" width="240" height="155" fill="#0f172a" stroke="#38bdf8" stroke-opacity="0.35"/><rect x="22" y="24" rx="10" ry="10" width="92" height="16" fill="#22d3ee"/><rect x="22" y="54" rx="10" ry="10" width="190" height="12" fill="#475569"/><rect x="22" y="78" rx="10" ry="10" width="160" height="12" fill="#334155"/><rect x="22" y="108" rx="16" ry="16" width="88" height="26" fill="#8b5cf6"/><rect x="122" y="108" rx="16" ry="16" width="88" height="26" fill="#1e293b" stroke="#475569"/></g><g><text x="76" y="138" font-size="30" font-weight="700" fill="#7dd3fc" font-family="Arial, Helvetica, sans-serif">AI STUDY NOTE</text><text x="76" y="232" font-size="56" font-weight="800" fill="#f8fafc" font-family="Arial, Helvetica, sans-serif">구글 안티그래비티</text><text x="76" y="302" font-size="56" font-weight="800" fill="#f8fafc" font-family="Arial, Helvetica, sans-serif">알아보다가</text><text x="76" y="382" font-size="68" font-weight="900" fill="url(#ac)" font-family="Arial, Helvetica, sans-serif">Google Stitch</text><text x="76" y="446" font-size="30" font-weight="700" fill="#cbd5e1" font-family="Arial, Helvetica, sans-serif">자연어 프롬프트로 UI/UX 시안을 만드는 경험</text></g><g><rect x="76" y="500" rx="18" ry="18" width="170" height="44" fill="#111827" stroke="#334155"/><text x="161" y="528" text-anchor="middle" font-size="22" font-weight="700" fill="#e2e8f0" font-family="Arial, Helvetica, sans-serif">Antigravity</text><rect x="262" y="500" rx="18" ry="18" width="132" height="44" fill="#111827" stroke="#334155"/><text x="328" y="528" text-anchor="middle" font-size="22" font-weight="700" fill="#e2e8f0" font-family="Arial, Helvetica, sans-serif">Stitch</text><rect x="410" y="500" rx="18" ry="18" width="116" height="44" fill="#111827" stroke="#334155"/><text x="468" y="528" text-anchor="middle" font-size="22" font-weight="700" fill="#e2e8f0" font-family="Arial, Helvetica, sans-serif">UI/UX</text></g></svg>